<svg xmlns="http://www.w3.org/2000/svg" viewBox="0 0 330 330" width="330" height="330">
<rect width="100%" height="100%" fill="#FFFFFF"/>
<rect x="40" y="40" width="10" height="10" fill="#1E3A8A"/>
<rect x="50" y="40" width="10" height="10" fill="#1E3A8A"/>
<rect x="60" y="40" width="10" height="10" fill="#1E3A8A"/>
<rect x="70" y="40" width="10" height="10" fill="#1E3A8A"/>
<rect x="80" y="40" width="10" height="10" fill="#1E3A8A"/>
<rect x="90" y="40" width="10" height="10" fill="#1E3A8A"/>
<rect x="100" y="40" width="10" height="10" fill="#1E3A8A"/>
<rect x="130" y="40" width="10" height="10" fill="#1E3A8A"/>
<rect x="150" y="40" width="10" height="10" fill="#1E3A8A"/>
<rect x="160" y="40" width="10" height="10" fill="#1E3A8A"/>
<rect x="190" y="40" width="10" height="10" fill="#1E3A8A"/>
<rect x="200" y="40" width="10" height="10" fill="#1E3A8A"/>
<rect x="220" y="40" width="10" height="10" fill="#1E3A8A"/>
<rect x="230" y="40" width="10" height="10" fill="#1E3A8A"/>
<rect x="240" y="40" width="10" height="10" fill="#1E3A8A"/>
<rect x="250" y="40" width="10" height="10" fill="#1E3A8A"/>
<rect x="260" y="40" width="10" height="10" fill="#1E3A8A"/>
<rect x="270" y="40" width="10" height="10" fill="#1E3A8A"/>
<rect x="280" y="40" width="10" height="10" fill="#1E3A8A"/>
<rect x="40" y="50" width="10" height="10" fill="#1E3A8A"/>
<rect x="100" y="50" width="10" height="10" fill="#1E3A8A"/>
<rect x="120" y="50" width="10" height="10" fill="#1E3A8A"/>
<rect x="130" y="50" width="10" height="10" fill="#1E3A8A"/>
<rect x="200" y="50" width="10" height="10" fill="#1E3A8A"/>
<rect x="220" y="50" width="10" height="10" fill="#1E3A8A"/>
<rect x="280" y="50" width="10" height="10" fill="#1E3A8A"/>
<rect x="40" y="60" width="10" height="10" fill="#1E3A8A"/>
<rect x="60" y="60" width="10" height="10" fill="#1E3A8A"/>
<rect x="70" y="60" width="10" height="10" fill="#1E3A8A"/>
<rect x="80" y="60" width="10" height="10" fill="#1E3A8A"/>
<rect x="100" y="60" width="10" height="10" fill="#1E3A8A"/>
<rect x="140" y="60" width="10" height="10" fill="#1E3A8A"/>
<rect x="150" y="60" width="10" height="10" fill="#1E3A8A"/>
<rect x="160" y="60" width="10" height="10" fill="#1E3A8A"/>
<rect x="170" y="60" width="10" height="10" fill="#1E3A8A"/>
<rect x="190" y="60" width="10" height="10" fill="#1E3A8A"/>
<rect x="220" y="60" width="10" height="10" fill="#1E3A8A"/>
<rect x="240" y="60" width="10" height="10" fill="#1E3A8A"/>
<rect x="250" y="60" width="10" height="10" fill="#1E3A8A"/>
<rect x="260" y="60" width="10" height="10" fill="#1E3A8A"/>
<rect x="280" y="60" width="10" height="10" fill="#1E3A8A"/>
<rect x="40" y="70" width="10" height="10" fill="#1E3A8A"/>
<rect x="60" y="70" width="10" height="10" fill="#1E3A8A"/>
<rect x="70" y="70" width="10" height="10" fill="#1E3A8A"/>
<rect x="80" y="70" width="10" height="10" fill="#1E3A8A"/>
<rect x="100" y="70" width="10" height="10" fill="#1E3A8A"/>
<rect x="140" y="70" width="10" height="10" fill="#1E3A8A"/>
<rect x="160" y="70" width="10" height="10" fill="#1E3A8A"/>
<rect x="190" y="70" width="10" height="10" fill="#1E3A8A"/>
<rect x="200" y="70" width="10" height="10" fill="#1E3A8A"/>
<rect x="220" y="70" width="10" height="10" fill="#1E3A8A"/>
<rect x="240" y="70" width="10" height="10" fill="#1E3A8A"/>
<rect x="250" y="70" width="10" height="10" fill="#1E3A8A"/>
<rect x="260" y="70" width="10" height="10" fill="#1E3A8A"/>
<rect x="280" y="70" width="10" height="10" fill="#1E3A8A"/>
<rect x="40" y="80" width="10" height="10" fill="#1E3A8A"/>
<rect x="60" y="80" width="10" height="10" fill="#1E3A8A"/>
<rect x="70" y="80" width="10" height="10" fill="#1E3A8A"/>
<rect x="80" y="80" width="10" height="10" fill="#1E3A8A"/>
<rect x="100" y="80" width="10" height="10" fill="#1E3A8A"/>
<rect x="120" y="80" width="10" height="10" fill="#1E3A8A"/>
<rect x="130" y="80" width="10" height="10" fill="#1E3A8A"/>
<rect x="140" y="80" width="10" height="10" fill="#1E3A8A"/>
<rect x="160" y="80" width="10" height="10" fill="#1E3A8A"/>
<rect x="190" y="80" width="10" height="10" fill="#1E3A8A"/>
<rect x="200" y="80" width="10" height="10" fill="#1E3A8A"/>
<rect x="220" y="80" width="10" height="10" fill="#1E3A8A"/>
<rect x="240" y="80" width="10" height="10" fill="#1E3A8A"/>
<rect x="250" y="80" width="10" height="10" fill="#1E3A8A"/>
<rect x="260" y="80" width="10" height="10" fill="#1E3A8A"/>
<rect x="280" y="80" width="10" height="10" fill="#1E3A8A"/>
<rect x="40" y="90" width="10" height="10" fill="#1E3A8A"/>
<rect x="100" y="90" width="10" height="10" fill="#1E3A8A"/>
<rect x="140" y="90" width="10" height="10" fill="#1E3A8A"/>
<rect x="180" y="90" width="10" height="10" fill="#1E3A8A"/>
<rect x="200" y="90" width="10" height="10" fill="#1E3A8A"/>
<rect x="220" y="90" width="10" height="10" fill="#1E3A8A"/>
<rect x="280" y="90" width="10" height="10" fill="#1E3A8A"/>
<rect x="40" y="100" width="10" height="10" fill="#1E3A8A"/>
<rect x="50" y="100" width="10" height="10" fill="#1E3A8A"/>
<rect x="60" y="100" width="10" height="10" fill="#1E3A8A"/>
<rect x="70" y="100" width="10" height="10" fill="#1E3A8A"/>
<rect x="80" y="100" width="10" height="10" fill="#1E3A8A"/>
<rect x="90" y="100" width="10" height="10" fill="#1E3A8A"/>
<rect x="100" y="100" width="10" height="10" fill="#1E3A8A"/>
<rect x="120" y="100" width="10" height="10" fill="#1E3A8A"/>
<rect x="140" y="100" width="10" height="10" fill="#1E3A8A"/>
<rect x="160" y="100" width="10" height="10" fill="#1E3A8A"/>
<rect x="180" y="100" width="10" height="10" fill="#1E3A8A"/>
<rect x="200" y="100" width="10" height="10" fill="#1E3A8A"/>
<rect x="220" y="100" width="10" height="10" fill="#1E3A8A"/>
<rect x="230" y="100" width="10" height="10" fill="#1E3A8A"/>
<rect x="240" y="100" width="10" height="10" fill="#1E3A8A"/>
<rect x="250" y="100" width="10" height="10" fill="#1E3A8A"/>
<rect x="260" y="100" width="10" height="10" fill="#1E3A8A"/>
<rect x="270" y="100" width="10" height="10" fill="#1E3A8A"/>
<rect x="280" y="100" width="10" height="10" fill="#1E3A8A"/>
<rect x="150" y="110" width="10" height="10" fill="#1E3A8A"/>
<rect x="160" y="110" width="10" height="10" fill="#1E3A8A"/>
<rect x="170" y="110" width="10" height="10" fill="#1E3A8A"/>
<rect x="200" y="110" width="10" height="10" fill="#1E3A8A"/>
<rect x="40" y="120" width="10" height="10" fill="#1E3A8A"/>
<rect x="60" y="120" width="10" height="10" fill="#1E3A8A"/>
<rect x="80" y="120" width="10" height="10" fill="#1E3A8A"/>
<rect x="100" y="120" width="10" height="10" fill="#1E3A8A"/>
<rect x="150" y="120" width="10" height="10" fill="#1E3A8A"/>
<rect x="170" y="120" width="10" height="10" fill="#1E3A8A"/>
<rect x="180" y="120" width="10" height="10" fill="#1E3A8A"/>
<rect x="240" y="120" width="10" height="10" fill="#1E3A8A"/>
<rect x="260" y="120" width="10" height="10" fill="#1E3A8A"/>
<rect x="280" y="120" width="10" height="10" fill="#1E3A8A"/>
<rect x="40" y="130" width="10" height="10" fill="#1E3A8A"/>
<rect x="60" y="130" width="10" height="10" fill="#1E3A8A"/>
<rect x="110" y="130" width="10" height="10" fill="#1E3A8A"/>
<rect x="130" y="130" width="10" height="10" fill="#1E3A8A"/>
<rect x="150" y="130" width="10" height="10" fill="#1E3A8A"/>
<rect x="160" y="130" width="10" height="10" fill="#1E3A8A"/>
<rect x="170" y="130" width="10" height="10" fill="#1E3A8A"/>
<rect x="180" y="130" width="10" height="10" fill="#1E3A8A"/>
<rect x="200" y="130" width="10" height="10" fill="#1E3A8A"/>
<rect x="220" y="130" width="10" height="10" fill="#1E3A8A"/>
<rect x="280" y="130" width="10" height="10" fill="#1E3A8A"/>
<rect x="60" y="140" width="10" height="10" fill="#1E3A8A"/>
<rect x="80" y="140" width="10" height="10" fill="#1E3A8A"/>
<rect x="100" y="140" width="10" height="10" fill="#1E3A8A"/>
<rect x="110" y="140" width="10" height="10" fill="#1E3A8A"/>
<rect x="120" y="140" width="10" height="10" fill="#1E3A8A"/>
<rect x="170" y="140" width="10" height="10" fill="#1E3A8A"/>
<rect x="180" y="140" width="10" height="10" fill="#1E3A8A"/>
<rect x="220" y="140" width="10" height="10" fill="#1E3A8A"/>
<rect x="240" y="140" width="10" height="10" fill="#1E3A8A"/>
<rect x="260" y="140" width="10" height="10" fill="#1E3A8A"/>
<rect x="270" y="140" width="10" height="10" fill="#1E3A8A"/>
<rect x="280" y="140" width="10" height="10" fill="#1E3A8A"/>
<rect x="40" y="150" width="10" height="10" fill="#1E3A8A"/>
<rect x="60" y="150" width="10" height="10" fill="#1E3A8A"/>
<rect x="70" y="150" width="10" height="10" fill="#1E3A8A"/>
<rect x="90" y="150" width="10" height="10" fill="#1E3A8A"/>
<rect x="140" y="150" width="10" height="10" fill="#1E3A8A"/>
<rect x="200" y="150" width="10" height="10" fill="#1E3A8A"/>
<rect x="210" y="150" width="10" height="10" fill="#1E3A8A"/>
<rect x="220" y="150" width="10" height="10" fill="#1E3A8A"/>
<rect x="270" y="150" width="10" height="10" fill="#1E3A8A"/>
<rect x="40" y="160" width="10" height="10" fill="#1E3A8A"/>
<rect x="60" y="160" width="10" height="10" fill="#1E3A8A"/>
<rect x="70" y="160" width="10" height="10" fill="#1E3A8A"/>
<rect x="90" y="160" width="10" height="10" fill="#1E3A8A"/>
<rect x="100" y="160" width="10" height="10" fill="#1E3A8A"/>
<rect x="110" y="160" width="10" height="10" fill="#1E3A8A"/>
<rect x="120" y="160" width="10" height="10" fill="#1E3A8A"/>
<rect x="130" y="160" width="10" height="10" fill="#1E3A8A"/>
<rect x="150" y="160" width="10" height="10" fill="#1E3A8A"/>
<rect x="160" y="160" width="10" height="10" fill="#1E3A8A"/>
<rect x="180" y="160" width="10" height="10" fill="#1E3A8A"/>
<rect x="200" y="160" width="10" height="10" fill="#1E3A8A"/>
<rect x="210" y="160" width="10" height="10" fill="#1E3A8A"/>
<rect x="220" y="160" width="10" height="10" fill="#1E3A8A"/>
<rect x="250" y="160" width="10" height="10" fill="#1E3A8A"/>
<rect x="270" y="160" width="10" height="10" fill="#1E3A8A"/>
<rect x="280" y="160" width="10" height="10" fill="#1E3A8A"/>
<rect x="40" y="170" width="10" height="10" fill="#1E3A8A"/>
<rect x="90" y="170" width="10" height="10" fill="#1E3A8A"/>
<rect x="110" y="170" width="10" height="10" fill="#1E3A8A"/>
<rect x="150" y="170" width="10" height="10" fill="#1E3A8A"/>
<rect x="170" y="170" width="10" height="10" fill="#1E3A8A"/>
<rect x="180" y="170" width="10" height="10" fill="#1E3A8A"/>
<rect x="200" y="170" width="10" height="10" fill="#1E3A8A"/>
<rect x="210" y="170" width="10" height="10" fill="#1E3A8A"/>
<rect x="220" y="170" width="10" height="10" fill="#1E3A8A"/>
<rect x="250" y="170" width="10" height="10" fill="#1E3A8A"/>
<rect x="280" y="170" width="10" height="10" fill="#1E3A8A"/>
<rect x="40" y="180" width="10" height="10" fill="#1E3A8A"/>
<rect x="70" y="180" width="10" height="10" fill="#1E3A8A"/>
<rect x="100" y="180" width="10" height="10" fill="#1E3A8A"/>
<rect x="150" y="180" width="10" height="10" fill="#1E3A8A"/>
<rect x="160" y="180" width="10" height="10" fill="#1E3A8A"/>
<rect x="170" y="180" width="10" height="10" fill="#1E3A8A"/>
<rect x="200" y="180" width="10" height="10" fill="#1E3A8A"/>
<rect x="230" y="180" width="10" height="10" fill="#1E3A8A"/>
<rect x="260" y="180" width="10" height="10" fill="#1E3A8A"/>
<rect x="270" y="180" width="10" height="10" fill="#1E3A8A"/>
<rect x="280" y="180" width="10" height="10" fill="#1E3A8A"/>
<rect x="50" y="190" width="10" height="10" fill="#1E3A8A"/>
<rect x="90" y="190" width="10" height="10" fill="#1E3A8A"/>
<rect x="130" y="190" width="10" height="10" fill="#1E3A8A"/>
<rect x="140" y="190" width="10" height="10" fill="#1E3A8A"/>
<rect x="150" y="190" width="10" height="10" fill="#1E3A8A"/>
<rect x="170" y="190" width="10" height="10" fill="#1E3A8A"/>
<rect x="180" y="190" width="10" height="10" fill="#1E3A8A"/>
<rect x="200" y="190" width="10" height="10" fill="#1E3A8A"/>
<rect x="240" y="190" width="10" height="10" fill="#1E3A8A"/>
<rect x="270" y="190" width="10" height="10" fill="#1E3A8A"/>
<rect x="40" y="200" width="10" height="10" fill="#1E3A8A"/>
<rect x="60" y="200" width="10" height="10" fill="#1E3A8A"/>
<rect x="80" y="200" width="10" height="10" fill="#1E3A8A"/>
<rect x="90" y="200" width="10" height="10" fill="#1E3A8A"/>
<rect x="100" y="200" width="10" height="10" fill="#1E3A8A"/>
<rect x="160" y="200" width="10" height="10" fill="#1E3A8A"/>
<rect x="170" y="200" width="10" height="10" fill="#1E3A8A"/>
<rect x="180" y="200" width="10" height="10" fill="#1E3A8A"/>
<rect x="190" y="200" width="10" height="10" fill="#1E3A8A"/>
<rect x="200" y="200" width="10" height="10" fill="#1E3A8A"/>
<rect x="210" y="200" width="10" height="10" fill="#1E3A8A"/>
<rect x="220" y="200" width="10" height="10" fill="#1E3A8A"/>
<rect x="230" y="200" width="10" height="10" fill="#1E3A8A"/>
<rect x="240" y="200" width="10" height="10" fill="#1E3A8A"/>
<rect x="250" y="200" width="10" height="10" fill="#1E3A8A"/>
<rect x="120" y="210" width="10" height="10" fill="#1E3A8A"/>
<rect x="130" y="210" width="10" height="10" fill="#1E3A8A"/>
<rect x="160" y="210" width="10" height="10" fill="#1E3A8A"/>
<rect x="170" y="210" width="10" height="10" fill="#1E3A8A"/>
<rect x="180" y="210" width="10" height="10" fill="#1E3A8A"/>
<rect x="190" y="210" width="10" height="10" fill="#1E3A8A"/>
<rect x="200" y="210" width="10" height="10" fill="#1E3A8A"/>
<rect x="240" y="210" width="10" height="10" fill="#1E3A8A"/>
<rect x="250" y="210" width="10" height="10" fill="#1E3A8A"/>
<rect x="270" y="210" width="10" height="10" fill="#1E3A8A"/>
<rect x="280" y="210" width="10" height="10" fill="#1E3A8A"/>
<rect x="40" y="220" width="10" height="10" fill="#1E3A8A"/>
<rect x="50" y="220" width="10" height="10" fill="#1E3A8A"/>
<rect x="60" y="220" width="10" height="10" fill="#1E3A8A"/>
<rect x="70" y="220" width="10" height="10" fill="#1E3A8A"/>
<rect x="80" y="220" width="10" height="10" fill="#1E3A8A"/>
<rect x="90" y="220" width="10" height="10" fill="#1E3A8A"/>
<rect x="100" y="220" width="10" height="10" fill="#1E3A8A"/>
<rect x="130" y="220" width="10" height="10" fill="#1E3A8A"/>
<rect x="180" y="220" width="10" height="10" fill="#1E3A8A"/>
<rect x="190" y="220" width="10" height="10" fill="#1E3A8A"/>
<rect x="200" y="220" width="10" height="10" fill="#1E3A8A"/>
<rect x="220" y="220" width="10" height="10" fill="#1E3A8A"/>
<rect x="240" y="220" width="10" height="10" fill="#1E3A8A"/>
<rect x="250" y="220" width="10" height="10" fill="#1E3A8A"/>
<rect x="270" y="220" width="10" height="10" fill="#1E3A8A"/>
<rect x="280" y="220" width="10" height="10" fill="#1E3A8A"/>
<rect x="40" y="230" width="10" height="10" fill="#1E3A8A"/>
<rect x="100" y="230" width="10" height="10" fill="#1E3A8A"/>
<rect x="160" y="230" width="10" height="10" fill="#1E3A8A"/>
<rect x="180" y="230" width="10" height="10" fill="#1E3A8A"/>
<rect x="190" y="230" width="10" height="10" fill="#1E3A8A"/>
<rect x="200" y="230" width="10" height="10" fill="#1E3A8A"/>
<rect x="240" y="230" width="10" height="10" fill="#1E3A8A"/>
<rect x="250" y="230" width="10" height="10" fill="#1E3A8A"/>
<rect x="270" y="230" width="10" height="10" fill="#1E3A8A"/>
<rect x="40" y="240" width="10" height="10" fill="#1E3A8A"/>
<rect x="60" y="240" width="10" height="10" fill="#1E3A8A"/>
<rect x="70" y="240" width="10" height="10" fill="#1E3A8A"/>
<rect x="80" y="240" width="10" height="10" fill="#1E3A8A"/>
<rect x="100" y="240" width="10" height="10" fill="#1E3A8A"/>
<rect x="120" y="240" width="10" height="10" fill="#1E3A8A"/>
<rect x="160" y="240" width="10" height="10" fill="#1E3A8A"/>
<rect x="170" y="240" width="10" height="10" fill="#1E3A8A"/>
<rect x="180" y="240" width="10" height="10" fill="#1E3A8A"/>
<rect x="200" y="240" width="10" height="10" fill="#1E3A8A"/>
<rect x="210" y="240" width="10" height="10" fill="#1E3A8A"/>
<rect x="220" y="240" width="10" height="10" fill="#1E3A8A"/>
<rect x="230" y="240" width="10" height="10" fill="#1E3A8A"/>
<rect x="240" y="240" width="10" height="10" fill="#1E3A8A"/>
<rect x="250" y="240" width="10" height="10" fill="#1E3A8A"/>
<rect x="40" y="250" width="10" height="10" fill="#1E3A8A"/>
<rect x="60" y="250" width="10" height="10" fill="#1E3A8A"/>
<rect x="70" y="250" width="10" height="10" fill="#1E3A8A"/>
<rect x="80" y="250" width="10" height="10" fill="#1E3A8A"/>
<rect x="100" y="250" width="10" height="10" fill="#1E3A8A"/>
<rect x="130" y="250" width="10" height="10" fill="#1E3A8A"/>
<rect x="150" y="250" width="10" height="10" fill="#1E3A8A"/>
<rect x="170" y="250" width="10" height="10" fill="#1E3A8A"/>
<rect x="180" y="250" width="10" height="10" fill="#1E3A8A"/>
<rect x="230" y="250" width="10" height="10" fill="#1E3A8A"/>
<rect x="240" y="250" width="10" height="10" fill="#1E3A8A"/>
<rect x="250" y="250" width="10" height="10" fill="#1E3A8A"/>
<rect x="260" y="250" width="10" height="10" fill="#1E3A8A"/>
<rect x="40" y="260" width="10" height="10" fill="#1E3A8A"/>
<rect x="60" y="260" width="10" height="10" fill="#1E3A8A"/>
<rect x="70" y="260" width="10" height="10" fill="#1E3A8A"/>
<rect x="80" y="260" width="10" height="10" fill="#1E3A8A"/>
<rect x="100" y="260" width="10" height="10" fill="#1E3A8A"/>
<rect x="150" y="260" width="10" height="10" fill="#1E3A8A"/>
<rect x="160" y="260" width="10" height="10" fill="#1E3A8A"/>
<rect x="170" y="260" width="10" height="10" fill="#1E3A8A"/>
<rect x="190" y="260" width="10" height="10" fill="#1E3A8A"/>
<rect x="200" y="260" width="10" height="10" fill="#1E3A8A"/>
<rect x="210" y="260" width="10" height="10" fill="#1E3A8A"/>
<rect x="240" y="260" width="10" height="10" fill="#1E3A8A"/>
<rect x="280" y="260" width="10" height="10" fill="#1E3A8A"/>
<rect x="40" y="270" width="10" height="10" fill="#1E3A8A"/>
<rect x="100" y="270" width="10" height="10" fill="#1E3A8A"/>
<rect x="120" y="270" width="10" height="10" fill="#1E3A8A"/>
<rect x="140" y="270" width="10" height="10" fill="#1E3A8A"/>
<rect x="160" y="270" width="10" height="10" fill="#1E3A8A"/>
<rect x="180" y="270" width="10" height="10" fill="#1E3A8A"/>
<rect x="190" y="270" width="10" height="10" fill="#1E3A8A"/>
<rect x="200" y="270" width="10" height="10" fill="#1E3A8A"/>
<rect x="240" y="270" width="10" height="10" fill="#1E3A8A"/>
<rect x="250" y="270" width="10" height="10" fill="#1E3A8A"/>
<rect x="270" y="270" width="10" height="10" fill="#1E3A8A"/>
<rect x="40" y="280" width="10" height="10" fill="#1E3A8A"/>
<rect x="50" y="280" width="10" height="10" fill="#1E3A8A"/>
<rect x="60" y="280" width="10" height="10" fill="#1E3A8A"/>
<rect x="70" y="280" width="10" height="10" fill="#1E3A8A"/>
<rect x="80" y="280" width="10" height="10" fill="#1E3A8A"/>
<rect x="90" y="280" width="10" height="10" fill="#1E3A8A"/>
<rect x="100" y="280" width="10" height="10" fill="#1E3A8A"/>
<rect x="140" y="280" width="10" height="10" fill="#1E3A8A"/>
<rect x="170" y="280" width="10" height="10" fill="#1E3A8A"/>
<rect x="180" y="280" width="10" height="10" fill="#1E3A8A"/>
<rect x="190" y="280" width="10" height="10" fill="#1E3A8A"/>
<rect x="200" y="280" width="10" height="10" fill="#1E3A8A"/>
<rect x="230" y="280" width="10" height="10" fill="#1E3A8A"/>
<rect x="270" y="280" width="10" height="10" fill="#1E3A8A"/>
<rect x="280" y="280" width="10" height="10" fill="#1E3A8A"/>
</svg>